:SAMPLES-PER-SECOND 30
:FULLY-SPECIFIED
:DEGREES
592
root  68.3174 40.3047 -6.81197 -94.6552 -88.8211 92.2373
RightUpLeg  -1.56382 -10.8776 -8.88229
RightLeg  6.24003 -7.19436 3.76564
RightFoot  0.726569 -0.0330084 0.36085
RightToes  -1.16417e-010 0 -3.6325e-017
Spine  8.63675 -0.121302 7.21759
Spine1  9.85923 1.212 -2.80133
HEad  -14.3186 5.46928 -4.01618
LeftShoulder1  9.84635 -14.192 -48.5794
LeftArm  -7.64835 12.3817 -23.1671
LeftForeArm  27.7973 -3.84603 -5.99919
LeftHand  -0.244104 0.0205437 5.32207
RightShoulder  7.13199 11.812 40.4019
RightArm  -6.70816 3.70548 32.7162
RightForeArm  10.6885 0.254167 6.94327
RightHand  -1.73001 3.18985 -23.3047
LeftUpLeg  1.33881 7.7231 9.26001
LeftLeg  0.363986 18.6201 -3.40429
LeftFoot  4.0512 0.688887 -5.27817
LeftToes  -2.09216e-011 1.96776e-011 -5.83545e-012
593
root  68.1398 40.3104 -6.8519 -70.2282 -88.7841 67.8635
RightUpLeg  -1.25906 -10.864 -8.84834
RightLeg  6.30587 -7.6723 3.71789
RightFoot  0.453991 -0.031494 0.356291
RightToes  -1.16417e-010 0 -3.6325e-017
Spine  8.13221 -0.183096 6.49392
Spine1  10.3478 0.906143 -2.12492
HEad  -14.8844 4.93133 -4.24594
LeftShoulder1  9.77331 -13.9642 -48.8485
LeftArm  -8.17157 19.0049 -24.2101
LeftForeArm  25.5006 -3.66132 -5.53598
LeftHand  -0.244104 0.0205437 5.32207
RightShoulder  6.699 11.1742 39.5169
RightArm  -10.0216 -3.94276 32.1084
RightForeArm  3.45824 3.21556 6.46526
RightHand  -2.32576 5.10374 -25.6109
LeftUpLeg  1.49617 7.73488 9.36694
LeftLeg  0.263761 18.1041 -3.40937
LeftFoot  3.98478 0.7114 -5.46551
LeftToes  -2.09216e-011 1.96776e-011 -5.83545e-012
594
root  67.9736 40.3178 -6.86577 -48.2797 -88.5557 46.1693
RightUpLeg  -1.19936 -10.8203 -8.77047
RightLeg  6.37681 -8.27082 3.66341
RightFoot  0.27097 -0.0313238 0.368491
RightToes  -1.16417e-010 0 -3.6325e-017
Spine  7.41151 -0.193609 5.97871
Spine1  10.9907 0.719826 -1.71141
HEad  -16.3919 4.1485 -4.76439
LeftShoulder1  9.60108 -13.6718 -48.8036
LeftArm  -9.62257 26.1984 -25.362
LeftForeArm  21.3475 -8.16082 -4.97148
LeftHand  -0.244104 0.0205437 5.32207
RightShoulder  6.05328 10.248 37.9755
RightArm  -8.92222 -12.9836 32.1765
RightForeArm  -7.37206 12.4749 6.7498
RightHand  -2.89296 6.86922 -27.212
LeftUpLeg  1.35202 7.77818 9.45651
LeftLeg  0.282353 17.5372 -3.40803
LeftFoot  3.92034 0.726616 -5.59927
LeftToes  -2.09216e-011 1.96776e-011 -5.83545e-012
595
root  67.8564 40.3186 -6.86305 -34.2106 -88.0503 32.3631
RightUpLeg  -1.30801 -10.8826 -8.82403
RightLeg  6.66384 -8.86944 3.6029
RightFoot  0.0468834 -0.0314186 0.378624
RightToes  -1.16417e-010 0 -3.6325e-017
Spine  6.87598 -0.199489 5.87838
Spine1  11.5409 0.74852 -1.92136
HEad  -18.4707 3.75526 -4.51146
LeftShoulder1  9.43038 -13.4978 -48.4239
LeftArm  -11.8919 33.2548 -26.4535
LeftForeArm  17.2535 -17.2927 -4.24225
LeftHand  -0.244104 0.0205437 5.32207
RightShoulder  5.55943 9.4939 36.7754
RightArm  -4.11159 -22.7708 32.199
RightForeArm  -18.82 27.2361 6.51237
RightHand  -3.35009 8.12629 -28.5079
LeftUpLeg  1.02807 7.74339 9.39504
LeftLeg  0.421708 16.9872 -3.37042
LeftFoot  3.90168 0.726848 -5.60711
LeftToes  -2.09216e-011 1.96776e-011 -5.83545e-012
596
root  67.8226 40.3082 -6.85081 -26.7604 -87.3082 25.0168
RightUpLeg  -1.43388 -11.0826 -9.03833
RightLeg  7.15244 -9.42935 3.53705
RightFoot  -0.194768 -0.0338211 0.416326
RightToes  -1.16417e-010 0 -3.6325e-017
Spine  6.84334 -0.366526 5.859
Spine1  11.8755 0.689759 -2.28715
HEad  -20.2024 4.05367 -3.13862
LeftShoulder1  9.21864 -13.3809 -47.6536
LeftArm  -17.3404 39.4666 -27.6963
LeftForeArm  19.8789 -30.2756 -5.38566
LeftHand  -0.244104 0.0205437 5.32207
RightShoulder  5.21667 9.02468 35.664
RightArm  -9.42764 -31.6234 32.2705
RightForeArm  -14.6913 43.0522 11.4438
RightHand  -3.72435 9.06478 -29.5894
LeftUpLeg  0.623471 7.69339 9.23045
LeftLeg  0.713501 16.3722 -3.36484
LeftFoot  3.94692 0.697951 -5.37755
LeftToes  -2.09216e-011 1.96776e-011 -5.83545e-012
597
root  67.8696 40.2949 -6.8279 -22.0825 -86.5995 20.3168
RightUpLeg  -1.53851 -11.2881 -9.22729
RightLeg  7.59265 -9.91404 3.49713
RightFoot  -0.276922 -0.0363266 0.445304
RightToes  -1.16417e-010 0 -3.6325e-017
Spine  7.24453 -0.682611 5.61608
Spine1  11.8202 0.368773 -2.28833
HEad  -21.6684 4.10655 -2.40481
LeftShoulder1  8.92176 -13.165 -46.6978
LeftArm  -21.7351 43.5942 -29.1108
LeftForeArm  27.6667 -45.0738 -9.35579
LeftHand  -0.244104 0.0205437 5.32207
RightShoulder  4.82282 8.53861 34.0955
RightArm  -13.4255 -37.1986 33.9146
RightForeArm  -7.38916 57.512 18.6555
RightHand  -3.67018 8.70667 -29.8756
LeftUpLeg  0.164335 7.71901 9.1187
LeftLeg  1.14402 15.758 -3.38165
LeftFoot  4.00112 0.649091 -4.99831
LeftToes  -2.09216e-011 1.96776e-011 -5.83545e-012
598
root  67.9742 40.2864 -6.7858 -19.3555 -86.2634 17.5016
RightUpLeg  -1.65235 -11.4117 -9.3089
RightLeg  7.83266 -10.1343 3.52102
RightFoot  -0.144922 -0.034786 0.399079
RightToes  -1.16417e-010 0 -3.6325e-017
Spine  7.88543 -0.8792 5.29297
Spine1  11.18 0.0699903 -2.00172
HEad  -22.9864 3.41741 -2.92169
LeftShoulder1  8.76048 -13.0132 -46.2639
LeftArm  -21.9628 44.1081 -29.3859
LeftForeArm  36.5997 -58.5466 -15.1135
LeftHand  -0.244104 0.0205437 5.32207
RightShoulder  4.47062 8.06736 32.6995
RightArm  -17.082 -38.0912 35.6512
RightForeArm  3.31861 68.2237 30.1289
RightHand  -3.2429 7.11855 -29.7507
LeftUpLeg  -0.224686 7.75757 9.06753
LeftLeg  1.58459 15.4374 -3.31318
LeftFoot  4.00313 0.612397 -4.72565
LeftToes  -2.09216e-011 1.96776e-011 -5.83545e-012
